<?xml version="1.0" standalone="no"?>
<!DOCTYPE svg PUBLIC "-//W3C//DTD SVG 20010904//EN"
 "http://www.w3.org/TR/2001/REC-SVG-20010904/DTD/svg10.dtd">
<svg version="1.0" xmlns="http://www.w3.org/2000/svg"
 width="267.000000pt" height="57.000000pt" viewBox="0 0 267.000000 57.000000"
 preserveAspectRatio="xMidYMid meet">
<metadata>
Created by potrace 1.10, written by Peter Selinger 2001-2011
</metadata>
<g transform="translate(0.000000,57.000000) scale(0.100000,-0.100000)"
fill="#000000" stroke="none">
<path d="M1100 315 c0 -96 3 -115 15 -115 12 0 15 14 15 64 0 46 4 65 14 69
25 10 38 -20 34 -78 -3 -47 0 -55 15 -55 14 0 17 10 17 61 0 33 -5 69 -10 80
-12 21 -40 25 -58 7 -9 -9 -12 -2 -12 35 0 35 -4 47 -15 47 -12 0 -15 -19 -15
-115z"/>
<path d="M681 391 c-26 -26 -35 -78 -21 -129 12 -46 33 -62 79 -62 21 0 31 5
31 15 0 10 -10 15 -34 15 -38 0 -48 15 -48 75 0 60 10 75 49 75 44 0 40 24 -5
28 -21 2 -37 -3 -51 -17z"/>
<path d="M820 395 c0 -8 9 -15 20 -15 11 0 20 7 20 15 0 8 -9 15 -20 15 -11 0
-20 -7 -20 -15z"/>
<path d="M1560 305 c0 -87 3 -105 15 -105 11 0 15 12 15 45 0 43 1 45 30 45
20 0 30 5 30 15 0 10 -10 15 -30 15 -27 0 -30 3 -30 29 0 26 4 30 32 33 55 5
46 28 -11 28 l-51 0 0 -105z"/>
<path d="M820 280 c0 -73 2 -80 20 -80 18 0 20 7 20 80 0 73 -2 80 -20 80 -18
0 -20 -7 -20 -80z"/>
<path d="M920 250 c0 -104 1 -110 20 -110 18 0 20 4 14 35 -6 35 -6 35 25 29
29 -6 32 -4 47 32 13 31 14 45 4 77 -12 43 -33 56 -61 38 -12 -7 -19 -7 -19
-1 0 5 -7 10 -15 10 -12 0 -15 -19 -15 -110z m80 31 c0 -33 -5 -51 -14 -54
-21 -8 -37 16 -35 54 3 44 6 49 30 49 16 0 19 -7 19 -49z"/>
<path d="M1287 342 c-24 -26 -23 -104 1 -125 20 -19 59 -22 82 -7 20 13 6 24
-33 24 -20 1 -33 6 -35 17 -2 12 6 15 35 15 32 -1 38 2 41 22 8 56 -55 94 -91
54z m61 -35 c3 -12 -3 -17 -22 -17 -25 0 -35 18 -19 34 12 12 38 2 41 -17z"/>
<path d="M1440 278 c0 -63 3 -78 15 -78 12 0 15 13 15 61 0 52 3 62 20 66 33
9 23 29 -15 29 l-35 0 0 -78z"/>
<path d="M1713 353 c-25 -9 -13 -22 25 -25 44 -4 49 -21 7 -28 -33 -6 -56 -40
-48 -71 7 -24 48 -35 68 -19 10 9 15 9 15 1 0 -6 6 -11 14 -11 11 0 13 15 11
66 -2 36 -9 72 -15 80 -12 14 -52 18 -77 7z m65 -95 c-4 -30 -48 -39 -48 -10
0 24 8 32 32 32 14 0 19 -6 16 -22z"/>
<path d="M1887 342 c-11 -12 -17 -36 -17 -64 0 -54 24 -81 66 -76 40 4 42 26
2 30 -32 3 -33 4 -33 48 0 42 2 45 28 48 15 2 27 9 27 18 0 21 -54 18 -73 -4z"/>
<path d="M2027 342 c-24 -26 -23 -104 1 -125 20 -19 59 -22 82 -7 20 13 6 24
-33 24 -49 1 -49 31 0 31 32 0 39 4 41 23 8 56 -55 94 -91 54z m63 -38 c0 -8
-10 -14 -25 -14 -18 0 -25 5 -25 19 0 11 6 21 13 24 15 6 37 -11 37 -29z"/>
</g>
</svg>
